<mxfile host="app.diagrams.net" modified="2021-09-16T17:22:09.118Z" agent="5.0 (Windows)" etag="ui3-3eSlIkQhE9UrfAyH" version="15.2.7" type="github">
  <diagram id="prtHgNgQTEPvFCAcTncT" name="Page-1">
    <mxGraphModel dx="1422" dy="1949" grid="1" gridSize="10" guides="1" tooltips="1" connect="1" arrows="1" fold="1" page="1" pageScale="1" pageWidth="827" pageHeight="1169" math="0" shadow="0">
      <root>
        <mxCell id="0" />
        <mxCell id="1" parent="0" />
        <mxCell id="8PC99fSCXIVmW6bhr0Ga-19" style="edgeStyle=orthogonalEdgeStyle;rounded=0;orthogonalLoop=1;jettySize=auto;html=1;exitX=0.75;exitY=0;exitDx=0;exitDy=0;entryX=0.75;entryY=1;entryDx=0;entryDy=0;" edge="1" parent="1" source="dNxyNK7c78bLwvsdeMH5-11" target="8PC99fSCXIVmW6bhr0Ga-1">
          <mxGeometry relative="1" as="geometry" />
        </mxCell>
        <mxCell id="dNxyNK7c78bLwvsdeMH5-11" value="&lt;div&gt;Model&lt;/div&gt;" style="swimlane;html=1;startSize=20;horizontal=1;containerType=tree;glass=0;" parent="1" vertex="1">
          <mxGeometry x="40" y="80" width="710" height="290" as="geometry" />
        </mxCell>
        <mxCell id="8PC99fSCXIVmW6bhr0Ga-21" value="Classes" style="swimlane;" vertex="1" parent="dNxyNK7c78bLwvsdeMH5-11">
          <mxGeometry x="40" y="60" width="200" height="200" as="geometry" />
        </mxCell>
        <mxCell id="8PC99fSCXIVmW6bhr0Ga-18" style="edgeStyle=orthogonalEdgeStyle;rounded=0;orthogonalLoop=1;jettySize=auto;html=1;exitX=0.25;exitY=1;exitDx=0;exitDy=0;entryX=0.25;entryY=0;entryDx=0;entryDy=0;" edge="1" parent="1" source="8PC99fSCXIVmW6bhr0Ga-1" target="dNxyNK7c78bLwvsdeMH5-11">
          <mxGeometry relative="1" as="geometry" />
        </mxCell>
        <mxCell id="8PC99fSCXIVmW6bhr0Ga-20" style="edgeStyle=orthogonalEdgeStyle;rounded=0;orthogonalLoop=1;jettySize=auto;html=1;exitX=0.75;exitY=0;exitDx=0;exitDy=0;entryX=0.75;entryY=1;entryDx=0;entryDy=0;" edge="1" parent="1" source="8PC99fSCXIVmW6bhr0Ga-1" target="8PC99fSCXIVmW6bhr0Ga-9">
          <mxGeometry relative="1" as="geometry" />
        </mxCell>
        <mxCell id="8PC99fSCXIVmW6bhr0Ga-1" value="View" style="swimlane;html=1;startSize=20;horizontal=1;containerType=tree;glass=0;" vertex="1" parent="1">
          <mxGeometry x="40" y="-260" width="710" height="290" as="geometry" />
        </mxCell>
        <mxCell id="8PC99fSCXIVmW6bhr0Ga-22" value="Vertical Container" style="swimlane;" vertex="1" parent="8PC99fSCXIVmW6bhr0Ga-1">
          <mxGeometry x="40" y="60" width="200" height="200" as="geometry" />
        </mxCell>
        <mxCell id="8PC99fSCXIVmW6bhr0Ga-17" style="edgeStyle=orthogonalEdgeStyle;rounded=0;orthogonalLoop=1;jettySize=auto;html=1;exitX=0.25;exitY=1;exitDx=0;exitDy=0;entryX=0.25;entryY=0;entryDx=0;entryDy=0;" edge="1" parent="1" source="8PC99fSCXIVmW6bhr0Ga-9" target="8PC99fSCXIVmW6bhr0Ga-1">
          <mxGeometry relative="1" as="geometry" />
        </mxCell>
        <mxCell id="8PC99fSCXIVmW6bhr0Ga-9" value="Template" style="swimlane;html=1;startSize=20;horizontal=1;containerType=tree;glass=0;" vertex="1" parent="1">
          <mxGeometry x="40" y="-610" width="710" height="290" as="geometry" />
        </mxCell>
        <mxCell id="8PC99fSCXIVmW6bhr0Ga-23" value="Html" style="swimlane;" vertex="1" parent="8PC99fSCXIVmW6bhr0Ga-9">
          <mxGeometry x="40" y="60" width="200" height="200" as="geometry" />
        </mxCell>
      </root>
    </mxGraphModel>
  </diagram>
</mxfile>
